<?xml version="1.0" encoding="UTF-8"?>
<svg id="Layer_1" data-name="Layer 1" xmlns="http://www.w3.org/2000/svg" viewBox="0 0 244 244">
  <defs>
    <style>
      .cls-1 {
        fill: none;
        stroke: #fff;
        stroke-miterlimit: 10;
        stroke-width: 14px;
      }

      .cls-2 {
        fill: #fff;
      }

      .cls-3 {
        fill: #231f20;
      }
    </style>
  </defs>
  <g>
    <path class="cls-2" d="M222.19,48c0,5.06-.65,9.9-1.84,14.37h0c.1,.16,.19,.31,.28,.46-.48,1.75-1.04,3.44-1.68,5.06l-.27-.1s-.05-.03-.07-.05c-8.82-5.98-15.01-15.91-18.06-26.67-.37-1.31-.7-2.63-.98-3.97-2.04-9.53-1.92-19.55-.39-29.22,13.14,3.9,23.01,20.38,23.01,40.12Z"/>
    <path class="cls-2" d="M44.12,7.97c1.55,9.93,1.63,20.22-.6,29.98-.24,1.05-.51,2.09-.8,3.12-3.01,10.66-9.12,20.5-17.8,26.5-.59-1.53-1.11-3.11-1.55-4.74-1.27-4.6-1.96-9.6-1.96-14.83,0-19.59,9.72-35.97,22.71-40.03Z"/>
  </g>
  <g>
    <path class="cls-1" d="M218.95,67.89c-4.95,12.6-14.45,21.11-25.36,21.11h-.2c-15.92-.15-28.8-18.44-28.8-41,0-11.34,3.26-21.61,8.53-29.03,5.2-7.33,12.35-11.89,20.27-11.97h.2c1.92,0,3.79,.26,5.6,.76,13.34,3.69,23.4,20.31,23.4,40.24,0,5.23-.69,10.23-1.96,14.83-.48,1.75-1.04,3.44-1.68,5.06Z"/>
    <path class="cls-1" d="M24.92,67.57c4.88,12.69,14.37,21.32,25.29,21.43h.2c16.01,0,29-18.35,29-41,0-11.34-3.26-21.61-8.53-29.03-5.25-7.4-12.47-11.97-20.47-11.97h-.2c-2.09,.02-4.13,.35-6.09,.97-12.99,4.06-22.71,20.44-22.71,40.03,0,5.23,.69,10.23,1.96,14.83,.44,1.63,.96,3.21,1.55,4.74Z"/>
    <path class="cls-1" d="M24.6,67.79c.11-.07,.22-.15,.32-.22,8.68-6,14.79-15.84,17.8-26.5,.29-1.03,.56-2.07,.8-3.12,2.23-9.76,2.15-20.05,.6-29.98,0-.04-.01-.08-.02-.12-.01-.09-.03-.18-.04-.27"/>
    <path class="cls-1" d="M199.22,7.58l-.03,.18s-.01,.08-.01,.12c-1.53,9.67-1.65,19.69,.39,29.22,.28,1.34,.61,2.66,.98,3.97,3.05,10.76,9.24,20.69,18.06,26.67,.02,.02,.05,.03,.07,.05"/>
    <path class="cls-1" d="M10.09,115.43c26.9,12.8,58.72,4.8,85.4-6.2,8.22-3,17.45-3,26.51-2.82"/>
    <path class="cls-1" d="M122,106.41c9.06-.18,18.29-.18,26.51,2.82,26.68,11,58.5,19,85.4,6.2"/>
    <path class="cls-1" d="M7.2,115.25c-.13,2.23-.2,4.48-.2,6.75,0,7.36,.69,14.56,2.03,21.54,10.07,53.21,56.82,93.46,112.97,93.46,21.17,0,41-5.72,58.03-15.7l36.11,11.1c.52,.15,1.02-.27,.95-.81l-4.99-38.13c11.34-14.27,19.36-31.3,22.87-49.92,1.34-6.98,2.03-14.18,2.03-21.54,0-2.26-.07-4.51-.2-6.74-1.1-19.1-6.87-36.96-16.17-52.43-.09-.15-.18-.3-.28-.45h0c1.19-4.48,1.84-9.32,1.84-14.38,0-19.74-9.87-36.22-23.01-40.12-1.87-.56-3.8-.86-5.79-.88h-.2c-7.94,0-15.14,4.51-20.37,11.82-15.32-7.57-32.57-11.82-50.82-11.82s-35.72,4.3-51.12,11.97c-.1,.04-.2,.09-.3,.15-5.2-7.42-12.4-12.04-20.37-12.12h-.21c-2.02,0-3.99,.29-5.9,.85-13.19,3.85-23.1,20.37-23.1,40.15,0,5.41,.74,10.57,2.1,15.3-9.15,15.36-14.81,33.04-15.9,51.95Z"/>
  </g>
  <rect class="cls-3" x="103.31" y="110.72" width="32.51" height="0"/>
  <rect class="cls-2" x="103.31" y="108.22" width="32.51" height="5"/>
</svg>