<?xml version="1.0" encoding="UTF-8"?>
<svg id="Layer_1" data-name="Layer 1" xmlns="http://www.w3.org/2000/svg" viewBox="0 0 244 244">
  <defs>
    <style>
      .cls-1 {
        stroke-width: 14px;
      }

      .cls-1, .cls-2 {
        fill: none;
        stroke: #414042;
        stroke-miterlimit: 10;
      }

      .cls-3 {
        fill: #414042;
      }

      .cls-4 {
        fill: #50989e;
      }

      .cls-2 {
        stroke-width: 9px;
      }
    </style>
  </defs>
  <g>
    <path class="cls-4" d="M237,122c0,7.36-.69,14.56-2.03,21.54l-1.06-.2c-26.9,12.8-58.72,4.8-85.4-6.2-8.22-3-17.45-3-26.51-2.82-9.06-.18-18.29-.18-26.51,2.82-26.68,11-58.5,19-85.4,6.2l-1.06,.2c-1.34-6.98-2.03-14.18-2.03-21.54,0-21.45,5.87-41.52,16.1-58.7,.42,1.55,.93,3.05,1.5,4.49,4.94,12.65,14.46,21.21,25.4,21.21h.41c16.01,0,29-18.35,29-41,0-11.34-3.26-21.61-8.53-29.03,15.4-7.67,32.75-11.97,51.12-11.97s35.5,4.25,50.82,11.82c-5.33,7.43-8.63,17.76-8.63,29.18,0,22.64,12.98,41,29,41h.4c12.32,0,22.84-10.85,27.04-26.17,10.39,17.28,16.37,37.53,16.37,59.17Z"/>
    <path class="cls-3" d="M222.19,48c0,5.06-.65,9.9-1.84,14.37-5.7-9.39-12.72-17.9-20.78-25.27-2.04-9.53-1.92-19.55-.39-29.22,13.14,3.9,23.01,20.38,23.01,40.12Z"/>
    <path class="cls-3" d="M220.35,62.37s.01,.01,0,.01c-.49,1.85-1.07,3.65-1.74,5.36-8.82-5.98-15.01-15.91-18.06-26.67-.37-1.31-.7-2.63-.98-3.97,8.06,7.37,15.08,15.88,20.78,25.27Z"/>
    <path class="cls-3" d="M44.12,7.97c1.55,9.93,1.63,20.22-.6,29.98-7.81,7.29-14.61,15.66-20.15,24.88-1.27-4.6-1.96-9.6-1.96-14.83,0-19.59,9.72-35.97,22.71-40.03Z"/>
    <path class="cls-3" d="M43.52,37.95c-.24,1.05-.51,2.09-.8,3.12-3.01,10.66-9.12,20.5-17.8,26.5-.59-1.53-1.11-3.11-1.55-4.74,5.54-9.22,12.34-17.59,20.15-24.88Z"/>
  </g>
  <g>
    <path class="cls-1" d="M193.39,89c-15.92-.15-28.8-18.44-28.8-41,0-11.34,3.26-21.61,8.53-29.03,5.2-7.33,12.35-11.89,20.27-11.97h.2c1.92,0,3.79,.26,5.6,.76,13.34,3.69,23.4,20.31,23.4,40.24,0,5.23-.69,10.23-1.96,14.83-4.2,15.32-14.72,26.17-27.04,26.17h-.2Z"/>
    <path class="cls-1" d="M50.21,89h.2c16.01,0,29-18.35,29-41,0-11.34-3.26-21.61-8.53-29.03-5.25-7.4-12.47-11.97-20.47-11.97h-.2c-2.09,.02-4.13,.35-6.09,.97-12.99,4.06-22.71,20.44-22.71,40.03,0,5.23,.69,10.23,1.96,14.83,.44,1.63,.96,3.21,1.55,4.74,4.88,12.69,14.37,21.32,25.29,21.43Z"/>
    <path class="cls-1" d="M24.6,67.79c.11-.07,.22-.15,.32-.22,8.68-6,14.79-15.84,17.8-26.5,.29-1.03,.56-2.07,.8-3.12,2.23-9.76,2.15-20.05,.6-29.98,0-.04,0-.08-.02-.12-.01-.09-.03-.18-.04-.27"/>
    <path class="cls-1" d="M199.22,7.58l-.03,.18s-.01,.08-.01,.12c-1.53,9.67-1.65,19.69,.39,29.22,.28,1.34,.61,2.66,.98,3.97,3.05,10.76,9.24,20.69,18.06,26.67,.02,.02,.05,.03,.07,.05"/>
    <path class="cls-1" d="M10.09,143.34c26.9,12.8,58.72,4.8,85.4-6.2,8.22-3,17.45-3,26.51-2.82"/>
    <path class="cls-1" d="M122,134.32c9.06-.18,18.29-.18,26.51,2.82,26.68,11,58.5,19,85.4,6.2"/>
    <path class="cls-1" d="M237,122c0-21.64-5.98-41.89-16.37-59.17-.09-.15-.18-.3-.28-.45h0c1.19-4.48,1.84-9.32,1.84-14.38,0-19.74-9.87-36.22-23.01-40.12-1.87-.56-3.8-.86-5.79-.88h-.2c-7.94,0-15.14,4.51-20.37,11.82-15.32-7.57-32.57-11.82-50.82-11.82s-35.72,4.3-51.12,11.97c-.1,.04-.2,.09-.3,.15-5.2-7.42-12.4-12.04-20.37-12.12h-.21c-2.02,0-3.99,.29-5.9,.85-13.19,3.85-23.1,20.37-23.1,40.15,0,5.41,.74,10.57,2.1,15.3C12.87,80.48,7,100.55,7,122c0,7.36,.69,14.56,2.03,21.54,10.07,53.21,56.82,93.46,112.97,93.46,21.17,0,41-5.72,58.03-15.7l36.11,11.1c.52,.15,1.02-.27,.95-.81l-4.99-38.13c11.34-14.27,19.36-31.3,22.87-49.92,1.34-6.98,2.03-14.18,2.03-21.54Z"/>
  </g>
  <rect class="cls-2" x="110.48" y="136.32" width="27.9" height=".41"/>
</svg>